<svg id="SvgjsSvg1001" width="288" height="288" xmlns="http://www.w3.org/2000/svg" version="1.1" xmlns:xlink="http://www.w3.org/1999/xlink" xmlns:svgjs="http://svgjs.com/svgjs"><defs id="SvgjsDefs1002"></defs><g id="SvgjsG1008"><svg xmlns="http://www.w3.org/2000/svg" xmlns:xlink="http://www.w3.org/1999/xlink" version="1.0" viewBox="0 0 563.553 585.775" width="288" height="288"><defs><path id="e" fill="#d4d4d4" d="M9.0357146 17.196428a.48214287.48214287 0 1 1-.9642858 0 .48214287.48214287 0 1 1 .9642858 0z" color="#000" display="block" style="marker:none" class="colorfff svgShape"></path></defs><defs><linearGradient id="a"><stop offset="0" stop-color="#00c6ff" class="stopColor939393 svgShape"></stop><stop offset="1" stop-color="#00c6ff" class="stopColord9d9d9 svgShape"></stop></linearGradient><linearGradient id="b"><stop offset="0" stop-color="#d4d4d4" class="stopColorfdfdfd svgShape"></stop><stop offset=".5" stop-color="#d4d4d4" class="stopColore8e8e8 svgShape"></stop><stop offset="1" stop-color="#d4d4d4" class="stopColord4d4d4 svgShape"></stop></linearGradient><linearGradient id="d" x1="10.679" x2="7.929" y1="15.929" y2="11.107" gradientTransform="matrix(13.57809 0 0 12.97439 -684.44 -695.178)" gradientUnits="userSpaceOnUse" xlink:href="#a"></linearGradient><linearGradient id="c" x1="2.761" x2="18.773" y1="6.11" y2="18.693" gradientTransform="matrix(13.54823 0 0 13.00556 -508.34 -835.508)" gradientUnits="userSpaceOnUse" xlink:href="#b"></linearGradient></defs><g transform="translate(645.4 691.105)" fill="#00c6ff" class="color000 svgShape"><rect width="542.977" height="90.279" x="-491.132" y="-702.028" fill="url(#c)" color="#000" display="block" rx="15.484" ry="14.863" style="marker:none" transform="matrix(.97655 -.21527 .23469 .97207 0 0)"></rect><rect width="517.845" height="372.308" x="-610.699" y="-480.145" fill="#00c6ff" stroke="#3b3b3b" stroke-width="5.012" color="#000" display="block" rx="15.516" ry="15.196" style="marker:none" class="color1b1b1b svgShape colorStroke3b3b3b svgStroke"></rect><rect width="540.487" height="80.576" x="80.994" y="-493.63" fill="#d4d4d4" color="#000" display="block" rx="15.518" ry="14.148" style="marker:none" transform="matrix(-.99998 .00677 .00815 .99997 0 0)" class="colore0e0e0 svgShape"></rect><path fill-rule="evenodd" d="m-155.87189-494.06975 52.77829 88.74537-66.31467-2.38747-51.87816-84.51386 65.41454-1.84404zm-127.28057.37174 50.66647 87.26452-65.86463-.26885-50.2164-85.17103 65.41456-1.82464zm-133.391 2.8873 50.44145 84.34419-65.86463-.26301-49.99136-82.29618 65.41454-1.785z" fill="#00c6ff" class="color000 svgShape"></path><path d="M-576.94459-484.75275c-2.53387 2.84094-4.15386 6.19344-4.12357 10.35627l.02057 43.82899 15.85274 24.6412 65.32802-.449-50.15744-78.38023-26.92032.00277z" color="#000" display="block" style="marker:none" fill="#00c6ff" class="color000 svgShape"></path><path fill-rule="evenodd" d="m-546.71904-595.66267-32.97537 91.39309 64.011-17.88126 32.97536-87.41947-64.01099 13.90764zm126.08228-28.23508-35.88497 99.65334 64.011-16.26992 35.88495-97.6196-64.01098 14.23618zm130.93156-30.85267-34.9151 101.52892 64.01099-16.24464 34.9151-99.49834-64.01099 14.21406z" fill="#00c6ff" class="color000 svgShape"></path><path d="M-119.41804-689.55971c3.30566 2.34763 5.79013 5.47021 6.76431 9.87248l9.53445 39.82568-15.59011 41.9077-73.82759 18.46885 33.95038-101.00815 39.16856-9.06656z" color="#000" display="block" style="marker:none" fill="#00c6ff" class="color000 svgShape"></path><rect width="540.488" height="84.448" x="81.018" y="-494.975" fill="none" stroke="#2b2b2b" stroke-width="4.952" color="#000" display="block" rx="15.518" ry="14.828" style="marker:none" transform="matrix(-.99997 .0071 .00778 .99997 0 0)" class="colorStroke2b2b2b svgStroke"></rect><rect width="542.977" height="90.279" x="-493.192" y="-700.422" fill="none" stroke="#2e2e2e" stroke-width="4.952" color="#000" display="block" rx="15.484" ry="14.863" style="marker:none" transform="matrix(.97655 -.21527 .23469 .97207 0 0)" class="colorStroke2e2e2e svgStroke"></rect><path fill="url(#d)" fill-rule="evenodd" stroke="#1b1b1b" stroke-width="3.614" d="M-595.69718-553.85022v101.01487c0 6.02383 5.33427 11.58429 11.63838 12.04765h107.16991c11.72691 0 17.29661-16.37175 8.24383-25.02204l-84.37811-94.52767c-13.09315-18.07146-42.67401-9.26742-42.67401 6.48719z" class="colorStroke1b1b1b svgStroke"></path><use color="#000" display="block" transform="matrix(13.57809 0 0 12.97439 -685.41 -759.587)" xlink:href="#e" style="marker:none"></use><use color="#000" display="block" transform="matrix(13.57809 0 0 12.97439 -685.41 -691.008)" xlink:href="#e" style="marker:none"></use><use color="#000" display="block" transform="matrix(13.57809 0 0 12.97439 -617.034 -691.008)" xlink:href="#e" style="marker:none"></use><path fill="#d4d4d4" d="M-601.06671-261.67792h496.5127v3.3994901h-496.5127zm0 30.68561h242.97427v3.3994901h-242.97427zm0-100.70816h496.5127v3.3994901h-496.5127z" class="colorfff svgShape"></path><text x="-590.87" y="-353.924" fill="#fff" font-family="DejaVu Sans" font-size="36.143" font-weight="700" style="text-align:start;line-height:125%" transform="scale(1.023 .97752)" svgjs:data="{&quot;leading&quot;:&quot;1.3&quot;}"><tspan x="-590.87" y="-353.924">PROD. n°</tspan></text><text x="-589.109" y="-311.729" fill="#fff" font-family="DejaVu Sans" font-size="21.686" font-weight="700" style="text-align:start;line-height:125%" transform="scale(1.023 .97752)" svgjs:data="{&quot;leading&quot;:&quot;1.3&quot;}"><tspan x="-589.109" y="-311.729">SCENE</tspan></text><text x="-588.88" y="-244.73" fill="#fff" font-family="DejaVu Sans" font-size="14.457" font-weight="700" style="text-align:start;line-height:125%" transform="scale(1.023 .97752)" svgjs:data="{&quot;leading&quot;:&quot;1.3&quot;}"><tspan x="-588.88" y="-244.73">DATE</tspan></text><path fill="#d4d4d4" d="M-354.00729-331.83304v133.24512h-3.5569327v-133.24512z" class="colorfff svgShape"></path><text x="-337.693" y="-314.017" fill="#fff" font-family="DejaVu Sans" font-size="21.686" font-weight="700" style="text-align:start;line-height:125%" transform="scale(1.023 .97752)" svgjs:data="{&quot;leading&quot;:&quot;1.3&quot;}"><tspan x="-337.693" y="-314.017">PRISE</tspan></text><path fill="#d4d4d4" d="M-601.06671-199.33888h496.5127v3.3994901h-496.5127z" class="colorfff svgShape"></path><text x="-589.543" y="-172.069" fill="#fff" font-family="DejaVu Sans" font-size="21.686" font-weight="700" style="text-align:start;line-height:125%" transform="scale(1.023 .97752)" svgjs:data="{&quot;leading&quot;:&quot;1.3&quot;}"><tspan x="-589.543" y="-172.069">REALISATEUR</tspan></text><text x="-337.259" y="-240.699" fill="#fff" font-family="DejaVu Sans" font-size="21.686" font-weight="700" style="text-align:start;line-height:125%" transform="scale(1.023 .97752)" svgjs:data="{&quot;leading&quot;:&quot;1.3&quot;}"><tspan x="-337.259" y="-240.699">SON</tspan></text><path fill="#d4d4d4" d="M-601.06671-157.89113h496.5127v3.3994901h-496.5127z" class="colorfff svgShape"></path><text x="-588.633" y="-130.204" fill="#fff" font-family="DejaVu Sans" font-size="21.686" font-weight="700" style="text-align:start;line-height:125%" transform="scale(1.023 .97752)" svgjs:data="{&quot;leading&quot;:&quot;1.3&quot;}"><tspan x="-588.633" y="-130.204">CAMERAMAN</tspan></text></g></svg></g></svg>